# MagicaVoxel @ Ephtracy

# group
g tommygun

# material
mtllib tommygun.mtl
usemtl palette

# normals
vn -1 0 0
vn 1 0 0
vn 0 0 1
vn 0 0 -1
vn 0 -1 0
vn 0 1 0

# texcoords
vt 0.537109 0.5
vt 0.994141 0.5

# verts
v -5 4 7
v -5 4 5
v -5 9 7
v -5 9 5
v -4 3 7
v -4 3 5
v -4 4 7
v -4 4 5
v -4 9 7
v -4 9 5
v -4 10 7
v -4 10 5
v -3 2 7
v -3 2 5
v -3 3 7
v -3 3 5
v -3 10 7
v -3 10 5
v -3 11 7
v -3 11 5
v -2 1 -20
v -2 1 -24
v -2 3 -16
v -2 3 -20
v -2 5 -12
v -2 5 -16
v -2 7 -8
v -2 7 -12
v -2 7 -22
v -2 7 -24
v -2 8 5
v -2 8 -7
v -2 9 -8
v -2 9 -22
v -2 10 -7
v -2 10 -11
v -2 11 5
v -2 12 5
v -2 12 -7
v -2 13 -7
v -2 13 -11
v -1 0 -19
v -1 0 -25
v -1 1 -2
v -1 1 -3
v -1 1 -20
v -1 1 -24
v -1 2 13
v -1 2 12
v -1 2 -1
v -1 2 -2
v -1 2 -3
v -1 2 -4
v -1 2 -15
v -1 2 -19
v -1 3 14
v -1 3 13
v -1 3 12
v -1 3 11
v -1 3 1
v -1 3 -1
v -1 3 -3
v -1 3 -4
v -1 3 -16
v -1 3 -20
v -1 4 15
v -1 4 14
v -1 4 12
v -1 4 11
v -1 4 5
v -1 4 1
v -1 4 -2
v -1 4 -3
v -1 4 -11
v -1 4 -15
v -1 5 16
v -1 5 15
v -1 5 13
v -1 5 12
v -1 5 -1
v -1 5 -2
v -1 5 -12
v -1 5 -16
v -1 6 14
v -1 6 13
v -1 6 5
v -1 6 3
v -1 6 -7
v -1 6 -11
v -1 7 17
v -1 7 16
v -1 7 -8
v -1 7 -12
v -1 7 -22
v -1 7 -24
v -1 8 18
v -1 8 17
v -1 8 14
v -1 8 10
v -1 8 7
v -1 8 3
v -1 8 1
v -1 8 -1
v -1 8 -7
v -1 8 -23
v -1 8 -25
v -1 9 18
v -1 9 16
v -1 9 15
v -1 9 10
v -1 9 8
v -1 9 -8
v -1 9 -22
v -1 10 25
v -1 10 16
v -1 10 15
v -1 10 8
v -1 10 -7
v -1 10 -11
v -1 10 -23
v -1 11 7
v -1 11 5
v -1 12 25
v -1 12 23
v -1 12 21
v -1 12 5
v -1 12 -4
v -1 12 -5
v -1 13 -4
v -1 13 -5
v -1 14 23
v -1 14 21
v 1 12 -8
v 1 12 -11
v 1 13 -8
v 1 13 -11
v -1 12 -8
v -1 12 -11
v -1 13 -8
v -1 13 -11
v 1 0 -19
v 1 0 -25
v 1 1 -2
v 1 1 -3
v 1 1 -20
v 1 1 -24
v 1 2 13
v 1 2 12
v 1 2 -1
v 1 2 -2
v 1 2 -3
v 1 2 -4
v 1 2 -15
v 1 2 -19
v 1 3 14
v 1 3 13
v 1 3 12
v 1 3 11
v 1 3 1
v 1 3 -1
v 1 3 -3
v 1 3 -4
v 1 3 -16
v 1 3 -20
v 1 4 15
v 1 4 14
v 1 4 12
v 1 4 11
v 1 4 5
v 1 4 1
v 1 4 -2
v 1 4 -3
v 1 4 -11
v 1 4 -15
v 1 5 16
v 1 5 15
v 1 5 13
v 1 5 12
v 1 5 -1
v 1 5 -2
v 1 5 -12
v 1 5 -16
v 1 6 14
v 1 6 13
v 1 6 5
v 1 6 3
v 1 6 -7
v 1 6 -11
v 1 7 17
v 1 7 16
v 1 7 -8
v 1 7 -12
v 1 7 -22
v 1 7 -24
v 1 8 18
v 1 8 17
v 1 8 14
v 1 8 10
v 1 8 7
v 1 8 3
v 1 8 1
v 1 8 -1
v 1 8 -7
v 1 8 -23
v 1 8 -25
v 1 9 18
v 1 9 16
v 1 9 15
v 1 9 10
v 1 9 8
v 1 9 -8
v 1 9 -22
v 1 10 25
v 1 10 16
v 1 10 15
v 1 10 8
v 1 10 -7
v 1 10 -11
v 1 10 -23
v 1 11 7
v 1 11 5
v 1 12 25
v 1 12 23
v 1 12 21
v 1 12 5
v 1 12 -4
v 1 12 -5
v 1 13 -4
v 1 13 -5
v 1 14 23
v 1 14 21
v 2 1 -20
v 2 1 -24
v 2 3 -16
v 2 3 -20
v 2 5 -12
v 2 5 -16
v 2 7 -8
v 2 7 -12
v 2 7 -22
v 2 7 -24
v 2 8 5
v 2 8 -7
v 2 9 -8
v 2 9 -22
v 2 10 -7
v 2 10 -11
v 2 11 5
v 2 12 5
v 2 12 -7
v 2 13 -7
v 2 13 -11
v 3 2 7
v 3 2 5
v 3 3 7
v 3 3 5
v 3 10 7
v 3 10 5
v 3 11 7
v 3 11 5
v 4 3 7
v 4 3 5
v 4 4 7
v 4 4 5
v 4 9 7
v 4 9 5
v 4 10 7
v 4 10 5
v 5 4 7
v 5 4 5
v 5 9 7
v 5 9 5
v -1 10 25
v -1 12 25
v 1 10 25
v 1 12 25
v -1 12 23
v -1 14 23
v 1 12 23
v 1 14 23
v -1 8 18
v -1 9 18
v 1 8 18
v 1 9 18
v -1 7 17
v -1 8 17
v 1 7 17
v 1 8 17
v -1 5 16
v -1 7 16
v -1 9 16
v -1 10 16
v 1 5 16
v 1 7 16
v 1 9 16
v 1 10 16
v -1 4 15
v -1 5 15
v 1 4 15
v 1 5 15
v -1 3 14
v -1 4 14
v 1 3 14
v 1 4 14
v -1 2 13
v -1 3 13
v 1 2 13
v 1 3 13
v -1 9 8
v -1 10 8
v 1 9 8
v 1 10 8
v -5 4 7
v -5 9 7
v -4 3 7
v -4 4 7
v -4 9 7
v -4 10 7
v -3 2 7
v -3 3 7
v -3 10 7
v -3 11 7
v -1 8 7
v -1 11 7
v 1 8 7
v 1 11 7
v 3 2 7
v 3 3 7
v 3 10 7
v 3 11 7
v 4 3 7
v 4 4 7
v 4 9 7
v 4 10 7
v 5 4 7
v 5 9 7
v -2 11 5
v -2 12 5
v -1 11 5
v -1 12 5
v 1 11 5
v 1 12 5
v 2 11 5
v 2 12 5
v -1 6 3
v -1 8 3
v 1 6 3
v 1 8 3
v -1 3 1
v -1 4 1
v 1 3 1
v 1 4 1
v -1 2 -1
v -1 3 -1
v 1 2 -1
v 1 3 -1
v -1 1 -2
v -1 2 -2
v 1 1 -2
v 1 2 -2
v -1 12 -4
v -1 13 -4
v 1 12 -4
v 1 13 -4
v -2 12 -7
v -2 13 -7
v -1 6 -7
v -1 8 -7
v 1 6 -7
v 1 8 -7
v 2 12 -7
v 2 13 -7
v -2 7 -8
v -2 9 -8
v -1 7 -8
v -1 9 -8
v 1 7 -8
v 1 9 -8
v 2 7 -8
v 2 9 -8
v -1 4 -11
v -1 6 -11
v 1 4 -11
v 1 6 -11
v -2 5 -12
v -2 7 -12
v -1 5 -12
v -1 7 -12
v 1 5 -12
v 1 7 -12
v 2 5 -12
v 2 7 -12
v -1 2 -15
v -1 4 -15
v 1 2 -15
v 1 4 -15
v -2 3 -16
v -2 5 -16
v -1 3 -16
v -1 5 -16
v 1 3 -16
v 1 5 -16
v 2 3 -16
v 2 5 -16
v -1 0 -19
v -1 2 -19
v 1 0 -19
v 1 2 -19
v -2 1 -20
v -2 3 -20
v -1 1 -20
v -1 3 -20
v 1 1 -20
v 1 3 -20
v 2 1 -20
v 2 3 -20
v -1 12 21
v -1 14 21
v 1 12 21
v 1 14 21
v -1 9 15
v -1 10 15
v 1 9 15
v 1 10 15
v -1 6 14
v -1 8 14
v 1 6 14
v 1 8 14
v -1 5 13
v -1 6 13
v 1 5 13
v 1 6 13
v -1 2 12
v -1 3 12
v -1 4 12
v -1 5 12
v 1 2 12
v 1 3 12
v 1 4 12
v 1 5 12
v -1 3 11
v -1 4 11
v 1 3 11
v 1 4 11
v -5 4 5
v -5 9 5
v -4 3 5
v -4 4 5
v -4 9 5
v -4 10 5
v -3 2 5
v -3 3 5
v -3 10 5
v -3 11 5
v -2 8 5
v -2 11 5
v -1 4 5
v -1 6 5
v 1 4 5
v 1 6 5
v 2 8 5
v 2 11 5
v 3 2 5
v 3 3 5
v 3 10 5
v 3 11 5
v 4 3 5
v 4 4 5
v 4 9 5
v 4 10 5
v 5 4 5
v 5 9 5
v -1 5 -1
v -1 8 -1
v 1 5 -1
v 1 8 -1
v -1 4 -2
v -1 5 -2
v 1 4 -2
v 1 5 -2
v -1 1 -3
v -1 2 -3
v -1 3 -3
v -1 4 -3
v 1 1 -3
v 1 2 -3
v 1 3 -3
v 1 4 -3
v -1 2 -4
v -1 3 -4
v 1 2 -4
v 1 3 -4
v -1 12 -5
v -1 13 -5
v 1 12 -5
v 1 13 -5
v -2 8 -7
v -2 10 -7
v -1 8 -7
v -1 10 -7
v 1 8 -7
v 1 10 -7
v 2 8 -7
v 2 10 -7
v -1 12 -8
v -1 13 -8
v 1 12 -8
v 1 13 -8
v -2 10 -11
v -2 13 -11
v -1 10 -11
v -1 12 -11
v -1 13 -11
v 1 10 -11
v 1 12 -11
v 1 13 -11
v 2 10 -11
v 2 13 -11
v -2 7 -22
v -2 9 -22
v -1 7 -22
v -1 9 -22
v 1 7 -22
v 1 9 -22
v 2 7 -22
v 2 9 -22
v -1 8 -23
v -1 10 -23
v 1 8 -23
v 1 10 -23
v -2 1 -24
v -2 7 -24
v -1 1 -24
v -1 7 -24
v 1 1 -24
v 1 7 -24
v 2 1 -24
v 2 7 -24
v -1 0 -25
v -1 8 -25
v 1 0 -25
v 1 8 -25
v -1 0 -19
v 1 0 -19
v -1 0 -25
v 1 0 -25
v -1 1 -2
v 1 1 -2
v -1 1 -3
v 1 1 -3
v -2 1 -20
v -1 1 -20
v 1 1 -20
v 2 1 -20
v -2 1 -24
v -1 1 -24
v 1 1 -24
v 2 1 -24
v -1 2 13
v 1 2 13
v -1 2 12
v 1 2 12
v -3 2 7
v 3 2 7
v -3 2 5
v 3 2 5
v -1 2 -1
v 1 2 -1
v -1 2 -2
v 1 2 -2
v -1 2 -3
v 1 2 -3
v -1 2 -4
v 1 2 -4
v -1 2 -15
v 1 2 -15
v -1 2 -19
v 1 2 -19
v -1 3 14
v 1 3 14
v -1 3 13
v 1 3 13
v -1 3 12
v 1 3 12
v -1 3 11
v 1 3 11
v -4 3 7
v -3 3 7
v 3 3 7
v 4 3 7
v -4 3 5
v -3 3 5
v 3 3 5
v 4 3 5
v -1 3 1
v 1 3 1
v -1 3 -1
v 1 3 -1
v -2 3 -16
v -1 3 -16
v 1 3 -16
v 2 3 -16
v -2 3 -20
v -1 3 -20
v 1 3 -20
v 2 3 -20
v -1 4 15
v 1 4 15
v -1 4 14
v 1 4 14
v -5 4 7
v -4 4 7
v 4 4 7
v 5 4 7
v -5 4 5
v -4 4 5
v -1 4 5
v 1 4 5
v 4 4 5
v 5 4 5
v -1 4 1
v 1 4 1
v -1 4 -11
v 1 4 -11
v -1 4 -15
v 1 4 -15
v -1 5 16
v 1 5 16
v -1 5 15
v 1 5 15
v -2 5 -12
v -1 5 -12
v 1 5 -12
v 2 5 -12
v -2 5 -16
v -1 5 -16
v 1 5 -16
v 2 5 -16
v -1 6 -7
v 1 6 -7
v -1 6 -11
v 1 6 -11
v -1 7 17
v 1 7 17
v -1 7 16
v 1 7 16
v -2 7 -8
v -1 7 -8
v 1 7 -8
v 2 7 -8
v -2 7 -12
v -1 7 -12
v 1 7 -12
v 2 7 -12
v -1 8 18
v 1 8 18
v -1 8 17
v 1 8 17
v -1 8 14
v 1 8 14
v -1 8 10
v 1 8 10
v -1 8 7
v 1 8 7
v -2 8 5
v 2 8 5
v -1 8 3
v 1 8 3
v -1 8 1
v 1 8 1
v -1 8 -1
v 1 8 -1
v -2 8 -7
v -1 8 -7
v 1 8 -7
v 2 8 -7
v -1 10 25
v 1 10 25
v -1 10 16
v 1 10 16
v -1 10 15
v 1 10 15
v -1 10 8
v 1 10 8
v -2 10 -7
v -1 10 -7
v 1 10 -7
v 2 10 -7
v -2 10 -11
v -1 10 -11
v 1 10 -11
v 2 10 -11
v -1 3 -3
v 1 3 -3
v -1 3 -4
v 1 3 -4
v -1 4 12
v 1 4 12
v -1 4 11
v 1 4 11
v -1 4 -2
v 1 4 -2
v -1 4 -3
v 1 4 -3
v -1 5 13
v 1 5 13
v -1 5 12
v 1 5 12
v -1 5 -1
v 1 5 -1
v -1 5 -2
v 1 5 -2
v -1 6 14
v 1 6 14
v -1 6 13
v 1 6 13
v -1 6 5
v 1 6 5
v -1 6 3
v 1 6 3
v -2 7 -22
v -1 7 -22
v 1 7 -22
v 2 7 -22
v -2 7 -24
v -1 7 -24
v 1 7 -24
v 2 7 -24
v -1 8 -23
v 1 8 -23
v -1 8 -25
v 1 8 -25
v -1 9 18
v 1 9 18
v -1 9 16
v 1 9 16
v -1 9 15
v 1 9 15
v -1 9 10
v 1 9 10
v -1 9 8
v 1 9 8
v -5 9 7
v -4 9 7
v 4 9 7
v 5 9 7
v -5 9 5
v -4 9 5
v 4 9 5
v 5 9 5
v -2 9 -8
v -1 9 -8
v 1 9 -8
v 2 9 -8
v -2 9 -22
v -1 9 -22
v 1 9 -22
v 2 9 -22
v -4 10 7
v -3 10 7
v 3 10 7
v 4 10 7
v -4 10 5
v -3 10 5
v 3 10 5
v 4 10 5
v -1 10 -11
v 1 10 -11
v -1 10 -23
v 1 10 -23
v -3 11 7
v -1 11 7
v 1 11 7
v 3 11 7
v -3 11 5
v -2 11 5
v -1 11 5
v 1 11 5
v 2 11 5
v 3 11 5
v -1 12 25
v 1 12 25
v -1 12 23
v 1 12 23
v -1 12 21
v 1 12 21
v -2 12 5
v -1 12 5
v 1 12 5
v 2 12 5
v -1 12 -4
v 1 12 -4
v -1 12 -5
v 1 12 -5
v -2 12 -7
v 2 12 -7
v -1 12 -8
v 1 12 -8
v -1 12 -11
v 1 12 -11
v -1 13 -4
v 1 13 -4
v -1 13 -5
v 1 13 -5
v -2 13 -7
v 2 13 -7
v -1 13 -8
v 1 13 -8
v -2 13 -11
v -1 13 -11
v 1 13 -11
v 2 13 -11
v -1 14 23
v 1 14 23
v -1 14 21
v 1 14 21

# faces
f 3/2/1 2/2/1 1/2/1
f 4/2/1 2/2/1 3/2/1
f 7/2/1 6/2/1 5/2/1
f 8/2/1 6/2/1 7/2/1
f 11/2/1 10/2/1 9/2/1
f 12/2/1 10/2/1 11/2/1
f 15/2/1 14/2/1 13/2/1
f 16/2/1 14/2/1 15/2/1
f 19/2/1 18/2/1 17/2/1
f 20/2/1 18/2/1 19/2/1
f 24/1/1 22/1/1 21/1/1
f 26/1/1 24/1/1 23/1/1
f 28/1/1 26/1/1 25/1/1
f 29/1/1 22/1/1 24/1/1
f 29/1/1 24/1/1 26/1/1
f 29/1/1 26/1/1 28/1/1
f 30/1/1 22/1/1 29/1/1
f 33/1/1 28/1/1 27/1/1
f 33/1/1 29/1/1 28/1/1
f 34/1/1 29/1/1 33/1/1
f 35/2/1 32/2/1 31/2/1
f 37/2/1 35/2/1 31/2/1
f 37/2/1 36/2/1 35/2/1
f 38/2/1 36/2/1 37/2/1
f 39/2/1 36/2/1 38/2/1
f 40/2/1 36/2/1 39/2/1
f 41/2/1 36/2/1 40/2/1
f 46/1/1 43/1/1 42/1/1
f 47/1/1 43/1/1 46/1/1
f 51/1/1 45/1/1 44/1/1
f 52/1/1 45/1/1 51/1/1
f 55/1/1 46/1/1 42/1/1
f 57/1/1 49/1/1 48/1/1
f 58/1/1 49/1/1 57/1/1
f 61/1/1 53/1/1 52/1/1
f 61/1/1 51/1/1 50/1/1
f 61/1/1 52/1/1 51/1/1
f 62/1/1 53/1/1 61/1/1
f 63/1/1 53/1/1 62/1/1
f 64/1/1 55/1/1 54/1/1
f 65/1/1 46/1/1 55/1/1
f 65/1/1 55/1/1 64/1/1
f 67/1/1 59/1/1 58/1/1
f 67/1/1 58/1/1 57/1/1
f 67/1/1 57/1/1 56/1/1
f 68/1/1 59/1/1 67/1/1
f 69/1/1 59/1/1 68/1/1
f 71/1/1 62/1/1 61/1/1
f 71/1/1 61/1/1 60/1/1
f 72/1/1 62/1/1 71/1/1
f 73/1/1 62/1/1 72/1/1
f 75/1/1 64/1/1 54/1/1
f 77/1/1 68/1/1 67/1/1
f 77/1/1 67/1/1 66/1/1
f 78/1/1 68/1/1 77/1/1
f 79/1/1 68/1/1 78/1/1
f 80/1/1 72/1/1 71/1/1
f 81/1/1 72/1/1 80/1/1
f 82/1/1 75/1/1 74/1/1
f 83/1/1 64/1/1 75/1/1
f 83/1/1 75/1/1 82/1/1
f 84/1/1 77/1/1 76/1/1
f 84/1/1 78/1/1 77/1/1
f 85/1/1 78/1/1 84/1/1
f 86/2/1 71/2/1 70/2/1
f 87/2/1 71/2/1 86/2/1
f 89/1/1 82/1/1 74/1/1
f 91/1/1 84/1/1 76/1/1
f 92/1/1 89/1/1 88/1/1
f 93/1/1 82/1/1 89/1/1
f 93/1/1 89/1/1 92/1/1
f 95/1/1 43/1/1 47/1/1
f 97/1/1 91/1/1 90/1/1
f 98/1/1 84/1/1 91/1/1
f 98/1/1 91/1/1 97/1/1
f 101/2/1 71/2/1 87/2/1
f 102/1/1 80/1/1 71/1/1
f 102/2/1 71/2/1 101/2/1
f 103/1/1 80/1/1 102/1/1
f 104/1/1 92/1/1 88/1/1
f 105/1/1 95/1/1 94/1/1
f 106/1/1 43/1/1 95/1/1
f 106/1/1 95/1/1 105/1/1
f 107/1/1 97/1/1 96/1/1
f 107/1/1 98/1/1 97/1/1
f 107/1/1 99/1/1 98/1/1
f 108/1/1 99/1/1 107/1/1
f 109/1/1 99/1/1 108/1/1
f 110/2/1 100/2/1 99/2/1
f 110/1/1 99/1/1 109/1/1
f 111/2/1 100/2/1 110/2/1
f 112/1/1 92/1/1 104/1/1
f 113/1/1 105/1/1 94/1/1
f 115/2/1 109/2/1 108/2/1
f 116/2/1 109/2/1 115/2/1
f 117/2/1 100/2/1 111/2/1
f 118/1/1 112/1/1 104/1/1
f 118/1/1 113/1/1 112/1/1
f 119/1/1 113/1/1 118/1/1
f 120/1/1 105/1/1 113/1/1
f 120/1/1 113/1/1 119/1/1
f 121/2/1 116/2/1 115/2/1
f 121/2/1 117/2/1 116/2/1
f 121/2/1 100/2/1 117/2/1
f 121/2/1 115/2/1 114/2/1
f 123/2/1 121/2/1 114/2/1
f 123/2/1 122/2/1 121/2/1
f 124/2/1 122/2/1 123/2/1
f 125/2/1 122/2/1 124/2/1
f 126/2/1 122/2/1 125/2/1
f 129/2/1 128/2/1 127/2/1
f 130/2/1 128/2/1 129/2/1
f 131/2/1 125/2/1 124/2/1
f 132/2/1 125/2/1 131/2/1
f 135/2/1 134/2/1 133/2/1
f 136/2/1 134/2/1 135/2/1
f 137/2/2 138/2/2 139/2/2
f 139/2/2 138/2/2 140/2/2
f 141/1/2 142/1/2 145/1/2
f 145/1/2 142/1/2 146/1/2
f 143/1/2 144/1/2 150/1/2
f 150/1/2 144/1/2 151/1/2
f 141/1/2 145/1/2 154/1/2
f 147/1/2 148/1/2 156/1/2
f 156/1/2 148/1/2 157/1/2
f 151/1/2 152/1/2 160/1/2
f 149/1/2 150/1/2 160/1/2
f 150/1/2 151/1/2 160/1/2
f 160/1/2 152/1/2 161/1/2
f 161/1/2 152/1/2 162/1/2
f 153/1/2 154/1/2 163/1/2
f 154/1/2 145/1/2 164/1/2
f 163/1/2 154/1/2 164/1/2
f 157/1/2 158/1/2 166/1/2
f 156/1/2 157/1/2 166/1/2
f 155/1/2 156/1/2 166/1/2
f 166/1/2 158/1/2 167/1/2
f 167/1/2 158/1/2 168/1/2
f 160/1/2 161/1/2 170/1/2
f 159/1/2 160/1/2 170/1/2
f 170/1/2 161/1/2 171/1/2
f 171/1/2 161/1/2 172/1/2
f 153/1/2 163/1/2 174/1/2
f 166/1/2 167/1/2 176/1/2
f 165/1/2 166/1/2 176/1/2
f 176/1/2 167/1/2 177/1/2
f 177/1/2 167/1/2 178/1/2
f 170/1/2 171/1/2 179/1/2
f 179/1/2 171/1/2 180/1/2
f 173/1/2 174/1/2 181/1/2
f 174/1/2 163/1/2 182/1/2
f 181/1/2 174/1/2 182/1/2
f 175/1/2 176/1/2 183/1/2
f 176/1/2 177/1/2 183/1/2
f 183/1/2 177/1/2 184/1/2
f 169/2/2 170/2/2 185/2/2
f 185/2/2 170/2/2 186/2/2
f 173/1/2 181/1/2 188/1/2
f 175/1/2 183/1/2 190/1/2
f 187/1/2 188/1/2 191/1/2
f 188/1/2 181/1/2 192/1/2
f 191/1/2 188/1/2 192/1/2
f 146/1/2 142/1/2 194/1/2
f 189/1/2 190/1/2 196/1/2
f 190/1/2 183/1/2 197/1/2
f 196/1/2 190/1/2 197/1/2
f 186/2/2 170/2/2 200/2/2
f 170/1/2 179/1/2 201/1/2
f 200/2/2 170/2/2 201/2/2
f 201/1/2 179/1/2 202/1/2
f 187/1/2 191/1/2 203/1/2
f 193/1/2 194/1/2 204/1/2
f 194/1/2 142/1/2 205/1/2
f 204/1/2 194/1/2 205/1/2
f 195/1/2 196/1/2 206/1/2
f 196/1/2 197/1/2 206/1/2
f 197/1/2 198/1/2 206/1/2
f 206/1/2 198/1/2 207/1/2
f 207/1/2 198/1/2 208/1/2
f 198/2/2 199/2/2 209/2/2
f 208/1/2 198/1/2 209/1/2
f 209/2/2 199/2/2 210/2/2
f 203/1/2 191/1/2 211/1/2
f 193/1/2 204/1/2 212/1/2
f 207/2/2 208/2/2 214/2/2
f 214/2/2 208/2/2 215/2/2
f 210/2/2 199/2/2 216/2/2
f 203/1/2 211/1/2 217/1/2
f 211/1/2 212/1/2 217/1/2
f 217/1/2 212/1/2 218/1/2
f 212/1/2 204/1/2 219/1/2
f 218/1/2 212/1/2 219/1/2
f 214/2/2 215/2/2 220/2/2
f 215/2/2 216/2/2 220/2/2
f 216/2/2 199/2/2 220/2/2
f 213/2/2 214/2/2 220/2/2
f 213/2/2 220/2/2 222/2/2
f 220/2/2 221/2/2 222/2/2
f 222/2/2 221/2/2 223/2/2
f 223/2/2 221/2/2 224/2/2
f 224/2/2 221/2/2 225/2/2
f 226/2/2 227/2/2 228/2/2
f 228/2/2 227/2/2 229/2/2
f 223/2/2 224/2/2 230/2/2
f 230/2/2 224/2/2 231/2/2
f 232/1/2 233/1/2 235/1/2
f 234/1/2 235/1/2 237/1/2
f 236/1/2 237/1/2 239/1/2
f 235/1/2 233/1/2 240/1/2
f 237/1/2 235/1/2 240/1/2
f 239/1/2 237/1/2 240/1/2
f 240/1/2 233/1/2 241/1/2
f 238/1/2 239/1/2 244/1/2
f 239/1/2 240/1/2 244/1/2
f 244/1/2 240/1/2 245/1/2
f 242/2/2 243/2/2 246/2/2
f 242/2/2 246/2/2 248/2/2
f 246/2/2 247/2/2 248/2/2
f 248/2/2 247/2/2 249/2/2
f 249/2/2 247/2/2 250/2/2
f 250/2/2 247/2/2 251/2/2
f 251/2/2 247/2/2 252/2/2
f 253/2/2 254/2/2 255/2/2
f 255/2/2 254/2/2 256/2/2
f 257/2/2 258/2/2 259/2/2
f 259/2/2 258/2/2 260/2/2
f 261/2/2 262/2/2 263/2/2
f 263/2/2 262/2/2 264/2/2
f 265/2/2 266/2/2 267/2/2
f 267/2/2 266/2/2 268/2/2
f 269/2/2 270/2/2 271/2/2
f 271/2/2 270/2/2 272/2/2
f 275/2/3 274/2/3 273/2/3
f 276/2/3 274/2/3 275/2/3
f 279/2/3 278/2/3 277/2/3
f 280/2/3 278/2/3 279/2/3
f 283/1/3 282/1/3 281/1/3
f 284/1/3 282/1/3 283/1/3
f 287/1/3 286/1/3 285/1/3
f 288/1/3 286/1/3 287/1/3
f 293/1/3 290/1/3 289/1/3
f 294/1/3 290/1/3 293/1/3
f 295/2/3 292/2/3 291/2/3
f 296/2/3 292/2/3 295/2/3
f 299/1/3 298/1/3 297/1/3
f 300/1/3 298/1/3 299/1/3
f 303/1/3 302/1/3 301/1/3
f 304/1/3 302/1/3 303/1/3
f 307/1/3 306/1/3 305/1/3
f 308/1/3 306/1/3 307/1/3
f 311/2/3 310/2/3 309/2/3
f 312/2/3 310/2/3 311/2/3
f 316/2/3 314/2/3 313/2/3
f 317/2/3 314/2/3 316/2/3
f 320/2/3 316/2/3 315/2/3
f 320/2/3 318/2/3 317/2/3
f 320/2/3 317/2/3 316/2/3
f 321/2/3 318/2/3 320/2/3
f 323/2/3 320/2/3 319/2/3
f 323/2/3 322/2/3 321/2/3
f 323/2/3 321/2/3 320/2/3
f 324/2/3 322/2/3 323/2/3
f 325/2/3 323/2/3 319/2/3
f 327/2/3 325/2/3 319/2/3
f 327/2/3 326/2/3 325/2/3
f 328/2/3 326/2/3 327/2/3
f 329/2/3 326/2/3 328/2/3
f 330/2/3 326/2/3 329/2/3
f 331/2/3 329/2/3 328/2/3
f 332/2/3 329/2/3 331/2/3
f 333/2/3 329/2/3 332/2/3
f 334/2/3 329/2/3 333/2/3
f 335/2/3 333/2/3 332/2/3
f 336/2/3 333/2/3 335/2/3
f 339/2/3 338/2/3 337/2/3
f 340/2/3 338/2/3 339/2/3
f 343/2/3 342/2/3 341/2/3
f 344/2/3 342/2/3 343/2/3
f 347/2/3 346/2/3 345/2/3
f 348/2/3 346/2/3 347/2/3
f 351/1/3 350/1/3 349/1/3
f 352/1/3 350/1/3 351/1/3
f 355/1/3 354/1/3 353/1/3
f 356/1/3 354/1/3 355/1/3
f 359/1/3 358/1/3 357/1/3
f 360/1/3 358/1/3 359/1/3
f 363/2/3 362/2/3 361/2/3
f 364/2/3 362/2/3 363/2/3
f 369/1/3 368/1/3 367/1/3
f 370/1/3 368/1/3 369/1/3
f 371/2/3 366/2/3 365/2/3
f 372/2/3 366/2/3 371/2/3
f 375/1/3 374/1/3 373/1/3
f 376/1/3 374/1/3 375/1/3
f 379/1/3 378/1/3 377/1/3
f 380/1/3 378/1/3 379/1/3
f 383/1/3 382/1/3 381/1/3
f 384/1/3 382/1/3 383/1/3
f 387/1/3 386/1/3 385/1/3
f 388/1/3 386/1/3 387/1/3
f 391/1/3 390/1/3 389/1/3
f 392/1/3 390/1/3 391/1/3
f 395/1/3 394/1/3 393/1/3
f 396/1/3 394/1/3 395/1/3
f 399/1/3 398/1/3 397/1/3
f 400/1/3 398/1/3 399/1/3
f 403/1/3 402/1/3 401/1/3
f 404/1/3 402/1/3 403/1/3
f 407/1/3 406/1/3 405/1/3
f 408/1/3 406/1/3 407/1/3
f 411/1/3 410/1/3 409/1/3
f 412/1/3 410/1/3 411/1/3
f 415/1/3 414/1/3 413/1/3
f 416/1/3 414/1/3 415/1/3
f 417/2/4 418/2/4 419/2/4
f 419/2/4 418/2/4 420/2/4
f 421/2/4 422/2/4 423/2/4
f 423/2/4 422/2/4 424/2/4
f 425/1/4 426/1/4 427/1/4
f 427/1/4 426/1/4 428/1/4
f 429/1/4 430/1/4 431/1/4
f 431/1/4 430/1/4 432/1/4
f 433/1/4 434/1/4 437/1/4
f 437/1/4 434/1/4 438/1/4
f 435/1/4 436/1/4 439/1/4
f 439/1/4 436/1/4 440/1/4
f 441/1/4 442/1/4 443/1/4
f 443/1/4 442/1/4 444/1/4
f 445/2/4 446/2/4 448/2/4
f 448/2/4 446/2/4 449/2/4
f 447/2/4 448/2/4 452/2/4
f 449/2/4 450/2/4 452/2/4
f 448/2/4 449/2/4 452/2/4
f 452/2/4 450/2/4 453/2/4
f 451/2/4 452/2/4 455/2/4
f 453/2/4 454/2/4 455/2/4
f 452/2/4 453/2/4 455/2/4
f 455/2/4 454/2/4 456/2/4
f 451/2/4 455/2/4 457/2/4
f 457/2/4 455/2/4 458/2/4
f 451/2/4 457/2/4 459/2/4
f 458/2/4 455/2/4 460/2/4
f 460/2/4 455/2/4 461/2/4
f 459/2/4 460/2/4 461/2/4
f 451/2/4 459/2/4 463/2/4
f 461/2/4 462/2/4 463/2/4
f 459/2/4 461/2/4 463/2/4
f 463/2/4 462/2/4 464/2/4
f 464/2/4 462/2/4 465/2/4
f 465/2/4 462/2/4 466/2/4
f 464/2/4 465/2/4 467/2/4
f 467/2/4 465/2/4 468/2/4
f 468/2/4 465/2/4 469/2/4
f 469/2/4 465/2/4 470/2/4
f 468/2/4 469/2/4 471/2/4
f 471/2/4 469/2/4 472/2/4
f 473/1/4 474/1/4 475/1/4
f 475/1/4 474/1/4 476/1/4
f 477/1/4 478/1/4 479/1/4
f 479/1/4 478/1/4 480/1/4
f 481/1/4 482/1/4 485/1/4
f 485/1/4 482/1/4 486/1/4
f 483/1/4 484/1/4 487/1/4
f 487/1/4 484/1/4 488/1/4
f 489/1/4 490/1/4 491/1/4
f 491/1/4 490/1/4 492/1/4
f 493/2/4 494/2/4 495/2/4
f 495/2/4 494/2/4 496/2/4
f 497/2/4 498/2/4 499/2/4
f 499/2/4 498/2/4 500/2/4
f 501/2/4 502/2/4 503/2/4
f 503/2/4 502/2/4 504/2/4
f 505/2/4 506/2/4 507/2/4
f 507/2/4 506/2/4 508/2/4
f 509/2/4 510/2/4 511/2/4
f 511/2/4 510/2/4 512/2/4
f 512/2/4 510/2/4 513/2/4
f 511/2/4 512/2/4 514/2/4
f 514/2/4 512/2/4 515/2/4
f 514/2/4 515/2/4 517/2/4
f 515/2/4 516/2/4 517/2/4
f 517/2/4 516/2/4 518/2/4
f 519/1/4 520/1/4 521/1/4
f 521/1/4 520/1/4 522/1/4
f 523/1/4 524/1/4 525/1/4
f 525/1/4 524/1/4 526/1/4
f 527/1/4 528/1/4 529/1/4
f 529/1/4 528/1/4 530/1/4
f 531/1/4 532/1/4 533/1/4
f 533/1/4 532/1/4 534/1/4
f 535/1/4 536/1/4 537/1/4
f 537/1/4 536/1/4 538/1/4
f 539/1/4 540/1/4 541/1/4
f 541/1/4 540/1/4 542/1/4
f 545/1/5 544/1/5 543/1/5
f 546/1/5 544/1/5 545/1/5
f 549/1/5 548/1/5 547/1/5
f 550/1/5 548/1/5 549/1/5
f 555/1/5 552/1/5 551/1/5
f 556/1/5 552/1/5 555/1/5
f 557/1/5 554/1/5 553/1/5
f 558/1/5 554/1/5 557/1/5
f 561/1/5 560/1/5 559/1/5
f 562/1/5 560/1/5 561/1/5
f 565/2/5 564/2/5 563/2/5
f 566/2/5 564/2/5 565/2/5
f 569/1/5 568/1/5 567/1/5
f 570/1/5 568/1/5 569/1/5
f 573/1/5 572/1/5 571/1/5
f 574/1/5 572/1/5 573/1/5
f 577/1/5 576/1/5 575/1/5
f 578/1/5 576/1/5 577/1/5
f 581/1/5 580/1/5 579/1/5
f 582/1/5 580/1/5 581/1/5
f 585/1/5 584/1/5 583/1/5
f 586/1/5 584/1/5 585/1/5
f 591/2/5 588/2/5 587/2/5
f 592/2/5 588/2/5 591/2/5
f 593/2/5 590/2/5 589/2/5
f 594/2/5 590/2/5 593/2/5
f 597/1/5 596/1/5 595/1/5
f 598/1/5 596/1/5 597/1/5
f 603/1/5 600/1/5 599/1/5
f 604/1/5 600/1/5 603/1/5
f 605/1/5 602/1/5 601/1/5
f 606/1/5 602/1/5 605/1/5
f 609/1/5 608/1/5 607/1/5
f 610/1/5 608/1/5 609/1/5
f 615/2/5 612/2/5 611/2/5
f 616/2/5 612/2/5 615/2/5
f 619/2/5 614/2/5 613/2/5
f 620/2/5 614/2/5 619/2/5
f 621/2/5 618/2/5 617/2/5
f 622/2/5 618/2/5 621/2/5
f 625/1/5 624/1/5 623/1/5
f 626/1/5 624/1/5 625/1/5
f 629/1/5 628/1/5 627/1/5
f 630/1/5 628/1/5 629/1/5
f 635/1/5 632/1/5 631/1/5
f 636/1/5 632/1/5 635/1/5
f 637/1/5 634/1/5 633/1/5
f 638/1/5 634/1/5 637/1/5
f 641/1/5 640/1/5 639/1/5
f 642/1/5 640/1/5 641/1/5
f 645/1/5 644/1/5 643/1/5
f 646/1/5 644/1/5 645/1/5
f 651/1/5 648/1/5 647/1/5
f 652/1/5 648/1/5 651/1/5
f 653/1/5 650/1/5 649/1/5
f 654/1/5 650/1/5 653/1/5
f 657/1/5 656/1/5 655/1/5
f 658/1/5 656/1/5 657/1/5
f 661/1/5 660/1/5 659/1/5
f 662/1/5 660/1/5 661/1/5
f 663/2/5 662/2/5 661/2/5
f 664/2/5 662/2/5 663/2/5
f 667/2/5 666/2/5 665/2/5
f 668/2/5 666/2/5 667/2/5
f 669/2/5 667/2/5 665/2/5
f 670/2/5 666/2/5 668/2/5
f 671/2/5 669/2/5 665/2/5
f 672/2/5 666/2/5 670/2/5
f 673/2/5 671/2/5 665/2/5
f 673/2/5 672/2/5 671/2/5
f 674/2/5 672/2/5 673/2/5
f 675/2/5 666/2/5 672/2/5
f 675/2/5 672/2/5 674/2/5
f 676/2/5 666/2/5 675/2/5
f 679/2/5 678/2/5 677/2/5
f 680/2/5 678/2/5 679/2/5
f 683/2/5 682/2/5 681/2/5
f 684/2/5 682/2/5 683/2/5
f 689/2/5 686/2/5 685/2/5
f 690/2/5 686/2/5 689/2/5
f 691/2/5 688/2/5 687/2/5
f 692/2/5 688/2/5 691/2/5
f 693/1/6 694/1/6 695/1/6
f 695/1/6 694/1/6 696/1/6
f 697/1/6 698/1/6 699/1/6
f 699/1/6 698/1/6 700/1/6
f 701/1/6 702/1/6 703/1/6
f 703/1/6 702/1/6 704/1/6
f 705/1/6 706/1/6 707/1/6
f 707/1/6 706/1/6 708/1/6
f 709/1/6 710/1/6 711/1/6
f 711/1/6 710/1/6 712/1/6
f 713/1/6 714/1/6 715/1/6
f 715/1/6 714/1/6 716/1/6
f 717/2/6 718/2/6 719/2/6
f 719/2/6 718/2/6 720/2/6
f 721/1/6 722/1/6 725/1/6
f 725/1/6 722/1/6 726/1/6
f 723/1/6 724/1/6 727/1/6
f 727/1/6 724/1/6 728/1/6
f 729/1/6 730/1/6 731/1/6
f 731/1/6 730/1/6 732/1/6
f 733/1/6 734/1/6 735/1/6
f 735/1/6 734/1/6 736/1/6
f 737/1/6 738/1/6 739/1/6
f 739/1/6 738/1/6 740/1/6
f 739/2/6 740/2/6 741/2/6
f 741/2/6 740/2/6 742/2/6
f 743/2/6 744/2/6 747/2/6
f 747/2/6 744/2/6 748/2/6
f 745/2/6 746/2/6 749/2/6
f 749/2/6 746/2/6 750/2/6
f 751/1/6 752/1/6 755/1/6
f 755/1/6 752/1/6 756/1/6
f 753/1/6 754/1/6 757/1/6
f 757/1/6 754/1/6 758/1/6
f 759/2/6 760/2/6 763/2/6
f 763/2/6 760/2/6 764/2/6
f 761/2/6 762/2/6 765/2/6
f 765/2/6 762/2/6 766/2/6
f 767/1/6 768/1/6 769/1/6
f 769/1/6 768/1/6 770/1/6
f 771/2/6 772/2/6 775/2/6
f 775/2/6 772/2/6 776/2/6
f 776/2/6 772/2/6 777/2/6
f 773/2/6 774/2/6 778/2/6
f 778/2/6 774/2/6 779/2/6
f 779/2/6 774/2/6 780/2/6
f 781/2/6 782/2/6 783/2/6
f 783/2/6 782/2/6 784/2/6
f 785/2/6 786/2/6 788/2/6
f 788/2/6 786/2/6 789/2/6
f 788/2/6 789/2/6 791/2/6
f 789/2/6 790/2/6 791/2/6
f 787/2/6 788/2/6 791/2/6
f 791/2/6 790/2/6 792/2/6
f 787/2/6 791/2/6 793/2/6
f 792/2/6 790/2/6 794/2/6
f 787/2/6 793/2/6 795/2/6
f 793/2/6 794/2/6 795/2/6
f 794/2/6 790/2/6 796/2/6
f 795/2/6 794/2/6 796/2/6
f 797/2/6 798/2/6 799/2/6
f 799/2/6 798/2/6 800/2/6
f 801/2/6 802/2/6 803/2/6
f 803/2/6 802/2/6 804/2/6
f 805/2/6 806/2/6 807/2/6
f 807/2/6 806/2/6 808/2/6
f 805/2/6 807/2/6 809/2/6
f 809/2/6 807/2/6 810/2/6
f 808/2/6 806/2/6 811/2/6
f 811/2/6 806/2/6 812/2/6
f 813/2/6 814/2/6 815/2/6
f 815/2/6 814/2/6 816/2/6
